<?xml version="1.0" standalone="no"?>
<!DOCTYPE svg PUBLIC "-//W3C//DTD SVG 20010904//EN"
 "http://www.w3.org/TR/2001/REC-SVG-20010904/DTD/svg10.dtd">
<svg version="1.0" xmlns="http://www.w3.org/2000/svg"
 width="500.000000pt" height="500.000000pt" viewBox="0 0 500.000000 500.000000"
 preserveAspectRatio="xMidYMid meet">

<g transform="translate(0.000000,500.000000) scale(0.100000,-0.100000)"
fill="#000000" stroke="none">
<path d="M2307 3884 c-464 -72 -854 -357 -1054 -772 -30 -62 -52 -119 -49
-128 4 -10 2 -13 -6 -8 -7 5 -9 0 -6 -14 4 -14 2 -20 -5 -15 -6 4 -8 -2 -5
-15 4 -12 3 -20 -2 -17 -10 6 -49 -179 -61 -299 -24 -227 20 -495 112 -695 87
-188 275 -420 441 -543 157 -116 343 -199 545 -244 101 -23 143 -27 288 -27
188 -1 285 15 454 75 325 115 611 369 770 685 41 83 58 131 20 61 -27 -53 -33
-47 -7 7 12 24 26 41 31 38 6 -3 7 -1 3 5 -4 7 7 55 24 109 29 91 66 290 56
300 -3 3 -8 -12 -11 -33 -12 -71 -57 -255 -61 -251 -3 2 5 42 16 88 11 46 20
95 19 109 0 14 -9 -17 -20 -69 -21 -97 -73 -250 -115 -333 -173 -343 -529
-615 -904 -692 -237 -48 -441 -38 -660 34 -585 193 -951 749 -891 1355 10 104
42 253 74 340 68 185 193 375 338 510 57 54 41 54 -21 1 -52 -46 -65 -51 -36
-16 65 78 226 200 346 260 47 24 98 60 85 60 -4 0 -50 -20 -102 -45 -118 -55
-255 -159 -372 -281 -107 -110 -151 -175 -237 -349 -92 -188 -133 -346 -154
-591 l-9 -109 4 135 c10 305 98 562 273 796 269 361 639 550 1090 556 l147 2
-135 6 -135 6 125 3 c83 2 115 6 95 11 -48 12 -202 9 -298 -6z m-427 -158 c0
-2 -7 -7 -16 -10 -8 -3 -12 -2 -9 4 6 10 25 14 25 6z m-41 -20 c-2 -2 -46 -32
-98 -67 -52 -34 -142 -107 -200 -162 l-106 -100 108 107 c63 63 145 132 199
167 76 50 115 72 97 55z m1912 -1703 c-12 -20 -14 -14 -5 12 4 9 9 14 11 11 3
-2 0 -13 -6 -23z m-20 -50 c-12 -20 -14 -14 -5 12 4 9 9 14 11 11 3 -2 0 -13
-6 -23z m-2166 -443 c10 -11 16 -20 13 -20 -3 0 -13 9 -23 20 -10 11 -16 20
-13 20 3 0 13 -9 23 -20z m86 -77 c13 -16 12 -17 -3 -4 -10 7 -18 15 -18 17 0
8 8 3 21 -13z m309 -193 c19 -11 31 -19 25 -19 -5 0 -26 8 -45 19 -19 11 -30
19 -25 19 6 0 26 -8 45 -19z"/>
<path d="M2040 3760 c-8 -5 -10 -10 -5 -10 6 0 17 5 25 10 8 5 11 10 5 10 -5
0 -17 -5 -25 -10z"/>
<path d="M1975 3506 l25 -25 -2 -252 -3 -252 -61 -13 c-34 -7 -77 -20 -95 -29
-60 -31 -135 -112 -164 -176 -24 -55 -27 -70 -23 -157 2 -78 8 -107 28 -147
31 -64 101 -134 165 -165 49 -25 54 -25 300 -25 l250 0 68 32 c170 81 269 266
237 444 -29 159 -121 275 -266 334 -51 21 -53 23 -29 29 14 4 44 23 67 44 114
103 102 262 -26 349 l-41 28 -228 3 -227 3 25 -25z m370 3 c96 -27 162 -148
136 -247 -14 -51 -73 -119 -118 -139 -42 -17 -274 -18 -291 -1 -9 9 -12 68
-12 205 l0 193 123 0 c67 0 140 -5 162 -11z m57 -456 c88 -41 160 -113 201
-200 40 -87 49 -210 22 -294 -36 -112 -116 -203 -224 -256 l-56 -28 -220 0
-220 0 -63 34 c-70 38 -120 90 -154 160 -19 39 -23 62 -23 146 0 89 3 106 27
150 32 62 112 139 175 167 38 17 68 22 138 23 80 0 96 -3 148 -30 104 -52 201
-185 170 -233 -5 -10 -24 -24 -42 -33 -38 -18 -51 -35 -51 -68 0 -56 77 -83
115 -41 15 16 17 32 13 87 -11 149 -102 267 -241 314 -52 17 -52 18 -55 64 -5
74 2 77 148 73 116 -3 130 -5 192 -35z"/>
<path d="M2423 3332 c-36 -48 -102 -192 -88 -192 2 0 16 5 30 12 18 8 37 35
61 86 47 103 45 159 -3 94z"/>
<path d="M2314 3034 c-8 -31 3 -123 22 -194 33 -116 97 -211 188 -280 29 -22
56 -40 59 -40 18 0 3 23 -41 64 -57 53 -117 150 -139 225 -8 30 -21 95 -27
144 -10 79 -14 91 -33 98 -19 7 -24 4 -29 -17z"/>
<path d="M2000 2730 l0 -221 -25 -24 -24 -25 77 0 c72 0 75 1 54 16 -22 15
-22 19 -22 245 l0 229 -30 0 -30 0 0 -220z"/>
<path d="M2698 3519 c-45 -10 -158 -66 -158 -77 0 -21 15 -17 62 14 171 116
401 68 529 -109 34 -46 34 -50 13 -71 -14 -15 -10 -16 40 -16 31 0 56 3 56 6
0 16 -65 97 -114 141 -56 51 -117 86 -195 109 -49 15 -175 17 -233 3z"/>
<path d="M3530 3405 c13 -14 26 -25 28 -25 3 0 -5 11 -18 25 -13 14 -26 25
-28 25 -3 0 5 -11 18 -25z"/>
<path d="M3680 3200 c6 -11 13 -20 16 -20 2 0 0 9 -6 20 -6 11 -13 20 -16 20
-2 0 0 -9 6 -20z"/>
<path d="M3732 3105 c12 -24 23 -43 26 -41 4 5 -36 86 -43 86 -3 0 5 -20 17
-45z"/>
<path d="M3075 2880 c96 -7 110 -13 125 -51 10 -24 9 -36 -4 -71 -22 -52 -76
-135 -113 -170 -89 -85 -221 -129 -328 -109 -70 13 -65 13 -65 2 0 -16 129
-24 198 -13 159 27 291 133 367 296 32 68 53 100 72 110 26 14 13 15 -152 14
-137 -1 -161 -3 -100 -8z"/>
<path d="M3821 2354 c0 -11 3 -14 6 -6 3 7 2 16 -1 19 -3 4 -6 -2 -5 -13z"/>
<path d="M1716 2144 c-9 -8 -16 -26 -16 -39 0 -19 -6 -24 -32 -27 -31 -3 -33
-6 -36 -45 -3 -41 -2 -42 30 -45 29 -3 33 -6 33 -33 0 -26 -4 -30 -32 -33 -34
-3 -42 -20 -42 -91 0 -57 15 -81 49 -81 25 0 30 -4 30 -24 0 -45 23 -56 118
-56 120 0 132 4 132 46 0 31 3 34 29 34 43 0 52 19 49 97 -3 67 -3 68 -33 71
-39 5 -49 15 -41 46 5 19 13 25 39 28 27 2 33 8 35 31 4 37 -13 57 -49 57 -26
0 -29 3 -29 34 0 42 -12 46 -132 46 -65 0 -90 -4 -102 -16z m222 -88 c2 -3 2
-17 -2 -31 -6 -25 -7 -25 -111 -25 l-105 0 0 29 c0 25 5 30 28 33 36 5 184 0
190 -6z m-3 -221 l0 -70 -110 0 -110 0 -3 46 c-2 25 2 57 7 72 l11 28 102 -3
103 -3 0 -70z"/>
<path d="M2375 2053 c-11 -137 0 -363 17 -374 15 -10 251 -12 285 -3 16 4 23
15 25 38 3 27 7 32 38 36 l35 5 0 80 0 80 -35 5 c-31 4 -36 9 -40 40 l-5 35
-107 5 c-58 3 -109 8 -112 11 -4 3 -9 36 -13 73 l-6 66 -38 0 -37 0 -7 -97z
m313 -215 l-3 -73 -72 -3 c-40 -2 -87 1 -105 6 -32 8 -33 10 -36 65 -3 52 -1
58 20 67 13 5 63 9 111 9 l88 1 -3 -72z"/>
<path d="M3210 2101 c0 -70 -13 -99 -47 -103 -25 -3 -28 -7 -28 -42 0 -36 3
-40 31 -48 37 -9 44 -32 44 -149 l0 -79 39 0 c48 0 51 7 51 119 0 93 8 111 48
111 21 0 23 4 20 42 -3 39 -6 43 -33 48 -28 5 -30 8 -33 55 -4 89 -7 95 -52
95 l-40 0 0 -49z"/>
<path d="M2920 2090 c0 -45 14 -56 56 -46 22 6 25 11 22 44 -3 35 -5 37 -40
40 l-38 3 0 -41z"/>
<path d="M2840 1979 c-16 -29 -4 -69 19 -69 32 0 51 -28 51 -75 0 -47 -19 -75
-50 -75 -32 0 -36 -61 -6 -82 13 -9 172 -10 204 -2 19 6 23 12 20 42 -3 31 -7
37 -34 44 -26 6 -33 14 -37 40 -2 18 -2 48 1 66 4 26 11 34 36 40 28 8 31 12
31 48 l0 39 -112 3 c-105 2 -113 1 -123 -19z"/>
<path d="M2084 1906 c-3 -8 -4 -27 -2 -43 l3 -28 117 -3 c117 -3 117 -3 124
22 3 13 3 34 -1 45 -6 20 -14 21 -121 21 -90 0 -116 -3 -120 -14z"/>
</g>
</svg>
